<svg width="18" height="18" viewBox="0 0 22 21" fill="none" xmlns="http://www.w3.org/2000/svg">
<path d="M6.58209 8.79529L10.9357 13.1489" stroke="#3100FB" stroke-width="2.5" stroke-linecap="round"/>
<path d="M10.9356 13.1489L20.3234 3.76118" stroke="#3100FB" stroke-width="2.5" stroke-linecap="round"/>
<mask id="path-3-inside-1_166_256" fill="white">
<path d="M20.9561 11.4591C20.7557 13.6442 19.8757 15.7116 18.4398 17.3709C17.004 19.0301 15.0843 20.1979 12.9507 20.71C10.817 21.2221 8.57645 21.053 6.54388 20.2262C4.5113 19.3995 2.7888 17.9567 1.61839 16.1006C0.447971 14.2445 -0.111547 12.0684 0.0184395 9.87799C0.148426 7.68756 0.961385 5.59289 2.3431 3.88827C3.72482 2.18364 5.60586 0.954725 7.72195 0.374169C9.83804 -0.206386 12.0828 -0.109406 14.141 0.651486L13.3914 2.67915C11.757 2.07492 9.97433 1.99791 8.29391 2.45893C6.61349 2.91996 5.11973 3.89586 4.02249 5.24953C2.92525 6.6032 2.27967 8.2666 2.17644 10.0061C2.07322 11.7455 2.51754 13.4736 3.44698 14.9475C4.37643 16.4215 5.74429 17.5672 7.35839 18.2237C8.97248 18.8803 10.7517 19.0146 12.4461 18.6079C14.1405 18.2012 15.6649 17.2739 16.8051 15.9563C17.9454 14.6386 18.6442 12.9969 18.8033 11.2616L20.9561 11.4591Z"/>
</mask>
<path d="M20.9561 11.4591C20.7557 13.6442 19.8757 15.7116 18.4398 17.3709C17.004 19.0301 15.0843 20.1979 12.9507 20.71C10.817 21.2221 8.57645 21.053 6.54388 20.2262C4.5113 19.3995 2.7888 17.9567 1.61839 16.1006C0.447971 14.2445 -0.111547 12.0684 0.0184395 9.87799C0.148426 7.68756 0.961385 5.59289 2.3431 3.88827C3.72482 2.18364 5.60586 0.954725 7.72195 0.374169C9.83804 -0.206386 12.0828 -0.109406 14.141 0.651486L13.3914 2.67915C11.757 2.07492 9.97433 1.99791 8.29391 2.45893C6.61349 2.91996 5.11973 3.89586 4.02249 5.24953C2.92525 6.6032 2.27967 8.2666 2.17644 10.0061C2.07322 11.7455 2.51754 13.4736 3.44698 14.9475C4.37643 16.4215 5.74429 17.5672 7.35839 18.2237C8.97248 18.8803 10.7517 19.0146 12.4461 18.6079C14.1405 18.2012 15.6649 17.2739 16.8051 15.9563C17.9454 14.6386 18.6442 12.9969 18.8033 11.2616L20.9561 11.4591Z" stroke="#3100FB" stroke-width="6" stroke-linejoin="round" mask="url(#path-3-inside-1_166_256)"/>
</svg>
